<svg width="40" height="40" viewBox="0 0 40 40" fill="none" xmlns="http://www.w3.org/2000/svg">
<path d="M30 36.6668H10C8.15907 36.6668 6.66669 35.1744 6.66669 33.3335V6.66682C6.66669 4.82587 8.15907 3.33348 10 3.33348H21.6667C21.6816 3.33155 21.6967 3.33155 21.7117 3.33348H21.7217C21.7374 3.33841 21.7536 3.34176 21.77 3.34348C21.917 3.35291 22.0621 3.38148 22.2017 3.42848H22.2267H22.2517H22.2717C22.3024 3.45003 22.3314 3.47399 22.3584 3.50015C22.5399 3.58086 22.7054 3.69379 22.8467 3.83348L32.8467 13.8335C32.9864 13.9748 33.0993 14.1402 33.18 14.3218C33.195 14.3585 33.2067 14.3935 33.2184 14.4318L33.235 14.4785C33.2815 14.6175 33.309 14.7621 33.3167 14.9085C33.3181 14.9251 33.3221 14.9414 33.3284 14.9568V14.9668C33.3311 14.9777 33.3328 14.9889 33.3334 15.0002V33.3335C33.3334 34.2175 32.9822 35.0654 32.357 35.6905C31.7319 36.3156 30.8841 36.6668 30 36.6668ZM24.04 23.3335V31.6668H25.6067V28.2668H28.04V26.8701H25.6067V24.7352H28.3334V23.3335H24.04ZM17.8734 23.3335V31.6668H19.8834C20.7266 31.7083 21.5431 31.365 22.1034 30.7335C22.6782 30 22.9661 29.0822 22.9134 28.1518V26.8018C22.952 25.8812 22.656 24.9777 22.08 24.2585C21.5377 23.6412 20.746 23.3014 19.925 23.3335H17.8734ZM11.6667 23.3335V31.6668H13.2334V28.7352H14.2767C14.9734 28.7737 15.6539 28.5158 16.15 28.0252C16.6235 27.4958 16.869 26.8011 16.8334 26.0918C16.8643 25.3655 16.6189 24.6545 16.1467 24.1018C15.6796 23.5838 15.0052 23.3019 14.3084 23.3335H11.6667ZM21.6667 6.66682V15.0002H30L21.6667 6.66682ZM19.91 30.2702H19.44V24.7352H20.01C20.4148 24.7113 20.804 24.8946 21.0434 25.2218C21.2877 25.7273 21.3924 26.2889 21.3467 26.8485V28.2968C21.3833 28.8297 21.2677 29.3621 21.0134 29.8318C20.7402 30.1507 20.3275 30.3146 19.91 30.2702ZM14.3084 27.3335H13.2317V24.7352H14.3234C14.5959 24.7381 14.8477 24.881 14.99 25.1135C15.1704 25.4111 15.2575 25.7559 15.24 26.1035C15.2609 26.4276 15.1748 26.7497 14.995 27.0201C14.8293 27.2282 14.5741 27.3446 14.3084 27.3335Z" fill="#2E3A59"/>
</svg>
