<svg width="159" height="42" viewBox="0 0 159 42" fill="none" xmlns="http://www.w3.org/2000/svg">
<path d="M47.6875 30.4277H41.5254V35.4668H48.6836V37H39.6504V22.7812H48.5859V24.3242H41.5254V28.8945H47.6875V30.4277ZM61.4766 32.4883C61.3008 33.9922 60.7441 35.1543 59.8066 35.9746C58.8757 36.7884 57.6354 37.1953 56.0859 37.1953C54.4062 37.1953 53.0586 36.5931 52.043 35.3887C51.0339 34.1842 50.5293 32.5729 50.5293 30.5547V29.1875C50.5293 27.8659 50.7637 26.7038 51.2324 25.7012C51.7077 24.6986 52.3783 23.9303 53.2441 23.3965C54.11 22.8561 55.1126 22.5859 56.252 22.5859C57.7624 22.5859 58.9733 23.0091 59.8848 23.8555C60.7962 24.6953 61.3268 25.8607 61.4766 27.3516H59.5918C59.429 26.2188 59.0742 25.3984 58.5273 24.8906C57.987 24.3828 57.2285 24.1289 56.252 24.1289C55.054 24.1289 54.1133 24.5716 53.4297 25.457C52.7526 26.3424 52.4141 27.6022 52.4141 29.2363V30.6133C52.4141 32.1562 52.7363 33.3835 53.3809 34.2949C54.0254 35.2064 54.9271 35.6621 56.0859 35.6621C57.1276 35.6621 57.9251 35.4277 58.4785 34.959C59.0384 34.4837 59.4095 33.6602 59.5918 32.4883H61.4766ZM71.8965 33.2891H65.9395L64.6016 37H62.668L68.0977 22.7812H69.7383L75.1777 37H73.2539L71.8965 33.2891ZM66.5059 31.7461H71.3398L68.918 25.0957L66.5059 31.7461ZM77.0918 37V22.7812H81.7402C83.2832 22.7812 84.4421 23.1003 85.2168 23.7383C85.998 24.3763 86.3887 25.3203 86.3887 26.5703C86.3887 27.2344 86.1999 27.8236 85.8223 28.3379C85.4447 28.8457 84.9303 29.2396 84.2793 29.5195C85.0475 29.7344 85.653 30.1445 86.0957 30.75C86.5449 31.349 86.7695 32.0651 86.7695 32.8984C86.7695 34.1745 86.3561 35.1771 85.5293 35.9062C84.7025 36.6354 83.5339 37 82.0234 37H77.0918ZM78.9668 30.3496V35.4668H82.0625C82.9349 35.4668 83.6217 35.2422 84.123 34.793C84.6309 34.3372 84.8848 33.7122 84.8848 32.918C84.8848 31.2057 83.9538 30.3496 82.0918 30.3496H78.9668ZM78.9668 28.8457H81.7988C82.6191 28.8457 83.2734 28.6406 83.7617 28.2305C84.2565 27.8203 84.5039 27.2637 84.5039 26.5605C84.5039 25.7793 84.276 25.2129 83.8203 24.8613C83.3646 24.5033 82.6712 24.3242 81.7402 24.3242H78.9668V28.8457ZM100.012 32.4883C99.8359 33.9922 99.2793 35.1543 98.3418 35.9746C97.4108 36.7884 96.1706 37.1953 94.6211 37.1953C92.9414 37.1953 91.5938 36.5931 90.5781 35.3887C89.569 34.1842 89.0645 32.5729 89.0645 30.5547V29.1875C89.0645 27.8659 89.2988 26.7038 89.7676 25.7012C90.2428 24.6986 90.9134 23.9303 91.7793 23.3965C92.6452 22.8561 93.6478 22.5859 94.7871 22.5859C96.2975 22.5859 97.5085 23.0091 98.4199 23.8555C99.3314 24.6953 99.862 25.8607 100.012 27.3516H98.127C97.9642 26.2188 97.6094 25.3984 97.0625 24.8906C96.5221 24.3828 95.7637 24.1289 94.7871 24.1289C93.5892 24.1289 92.6484 24.5716 91.9648 25.457C91.2878 26.3424 90.9492 27.6022 90.9492 29.2363V30.6133C90.9492 32.1562 91.2715 33.3835 91.916 34.2949C92.5605 35.2064 93.4622 35.6621 94.6211 35.6621C95.6628 35.6621 96.4603 35.4277 97.0137 34.959C97.5736 34.4837 97.9447 33.6602 98.127 32.4883H100.012ZM110.432 33.2891H104.475L103.137 37H101.203L106.633 22.7812H108.273L113.713 37H111.789L110.432 33.2891ZM105.041 31.7461H109.875L107.453 25.0957L105.041 31.7461ZM120.842 31.248H117.502V37H115.617V22.7812H120.324C121.926 22.7812 123.156 23.1458 124.016 23.875C124.882 24.6042 125.314 25.6654 125.314 27.0586C125.314 27.944 125.074 28.7155 124.592 29.373C124.117 30.0306 123.452 30.5221 122.6 30.8477L125.939 36.8828V37H123.928L120.842 31.248ZM117.502 29.7148H120.383C121.314 29.7148 122.053 29.474 122.6 28.9922C123.153 28.5104 123.43 27.8659 123.43 27.0586C123.43 26.1797 123.166 25.5059 122.639 25.0371C122.118 24.5684 121.363 24.3307 120.373 24.3242H117.502V29.7148ZM127.951 37V22.7812H131.965C133.202 22.7812 134.296 23.0547 135.246 23.6016C136.197 24.1484 136.929 24.9264 137.443 25.9355C137.964 26.9447 138.228 28.1035 138.234 29.4121V30.3203C138.234 31.6615 137.974 32.8366 137.453 33.8457C136.939 34.8548 136.2 35.6296 135.236 36.1699C134.279 36.7103 133.163 36.987 131.887 37H127.951ZM129.826 24.3242V35.4668H131.799C133.244 35.4668 134.367 35.0176 135.168 34.1191C135.975 33.2207 136.379 31.9414 136.379 30.2812V29.4512C136.379 27.8366 135.998 26.5833 135.236 25.6914C134.481 24.793 133.407 24.3372 132.014 24.3242H129.826ZM143.088 37H141.213V22.7812H143.088V37ZM157.463 30.3496C157.463 31.7428 157.229 32.9603 156.76 34.002C156.291 35.0371 155.627 35.8281 154.768 36.375C153.908 36.9219 152.906 37.1953 151.76 37.1953C150.64 37.1953 149.647 36.9219 148.781 36.375C147.915 35.8216 147.242 35.0371 146.76 34.0215C146.285 32.9993 146.04 31.8177 146.027 30.4766V29.4512C146.027 28.084 146.265 26.8763 146.74 25.8281C147.215 24.7799 147.886 23.9792 148.752 23.4258C149.624 22.8659 150.62 22.5859 151.74 22.5859C152.88 22.5859 153.882 22.8626 154.748 23.416C155.62 23.9629 156.291 24.7604 156.76 25.8086C157.229 26.8503 157.463 28.0645 157.463 29.4512V30.3496ZM155.598 29.4316C155.598 27.7454 155.259 26.4531 154.582 25.5547C153.905 24.6497 152.958 24.1973 151.74 24.1973C150.555 24.1973 149.621 24.6497 148.938 25.5547C148.26 26.4531 147.912 27.7031 147.893 29.3047V30.3496C147.893 31.9837 148.234 33.2695 148.918 34.207C149.608 35.138 150.555 35.6035 151.76 35.6035C152.971 35.6035 153.908 35.1641 154.572 34.2852C155.236 33.3997 155.578 32.1335 155.598 30.4863V29.4316Z" fill="white"/>
<path d="M28.7676 18.9141L24.3027 27.7886C23.7636 28.8689 22.2004 28.8332 21.7063 27.7351L16.5945 16.4589L13.8994 22.8603H5.44555L21.8411 39.5112C22.4789 40.1629 23.5121 40.1629 24.1499 39.5112L40.5544 22.8603H30.7531L28.7676 18.9141ZM42.5579 3.74533L42.3422 3.52212C37.7156 -1.17404 30.1422 -1.17404 25.5065 3.52212L23 6.07555L20.4935 3.53105C15.8668 -1.17404 8.28445 -1.17404 3.65776 3.53105L3.44215 3.74533C-0.932986 8.19151 -1.12165 15.2715 2.78633 20.0033H11.9858L15.211 12.3073C15.6961 11.1556 17.3312 11.1288 17.8523 12.2716L23.0809 23.8156L27.4829 15.0751C28.013 14.0215 29.5223 14.0215 30.0523 15.0751L32.5319 20.0033H43.2137C47.1216 15.2715 46.933 8.19151 42.5579 3.74533Z" fill="white"/>
</svg>
